<?xml version="1.0" encoding="UTF-8"?>
<svg id="Layer_2" data-name="Layer 2" xmlns="http://www.w3.org/2000/svg" version="1.1" viewBox="0 0 600 600">
  <defs>
    <style>
      .cls-1 {
        fill: #feaa47;
      }

      .cls-1, .cls-2 {
        stroke-width: 0px;
      }

      .cls-2 {
        fill: #fff;
      }
    </style>
  </defs>
  <rect class="cls-1" x="124.4" y="115" width="351.2" height="351.2" rx="30" ry="30"/>
  <path class="cls-2" d="M355.8,422.8h-111.5c-42.1,0-76.4-34.3-76.4-76.4v-111.5c0-42.1,34.3-76.4,76.4-76.4h111.5c42.1,0,76.4,34.3,76.4,76.4v111.5c0,42.1-34.3,76.4-76.4,76.4ZM244.2,185.1c-27.5,0-49.8,22.3-49.8,49.8v111.5c0,27.5,22.3,49.8,49.8,49.8h111.5c27.5,0,49.8-22.3,49.8-49.8v-111.5c0-27.5-22.3-49.8-49.8-49.8h-111.5Z"/>
  <path class="cls-2" d="M300,357.5c-36.9,0-66.9-30-66.9-66.9s30-66.9,66.9-66.9,66.9,30,66.9,66.9-30,66.9-66.9,66.9ZM300,246c-24.6,0-44.7,20-44.7,44.7s20,44.7,44.7,44.7,44.7-20,44.7-44.7-20-44.7-44.7-44.7Z"/>
  <circle class="cls-2" cx="368.2" cy="220.4" r="15.6" transform="translate(-56.3 157.7) rotate(-22.5)"/>
</svg>